<svg xmlns="http://www.w3.org/2000/svg" xmlns:xlink="http://www.w3.org/1999/xlink" version="1.1" width="256" height="256" viewBox="0 0 256 256" xml:space="preserve">
<desc>Created with Fabric.js 1.7.22</desc>
<defs>
</defs>
<g transform="translate(128 128) scale(0.72 0.72)" style="">
	<g style="stroke: none; stroke-width: 0; stroke-dasharray: none; stroke-linecap: butt; stroke-linejoin: miter; stroke-miterlimit: 10; fill: none; fill-rule: nonzero; opacity: 1;" transform="translate(-175.05 -175.05000000000004) scale(3.89 3.89)" >
	<path d="M 89.903 10.866 c -0.172 -0.378 -0.564 -0.623 -0.974 -0.587 l -9.822 0.605 l 0.605 -9.822 c 0.025 -0.415 -0.208 -0.802 -0.587 -0.973 c -0.38 -0.172 -0.824 -0.09 -1.118 0.205 l -6.301 6.301 c -0.173 0.172 -0.276 0.402 -0.291 0.646 l -0.653 10.574 L 38.968 49.609 c -0.391 0.391 -0.391 1.023 0 1.414 c 0.195 0.195 0.451 0.293 0.707 0.293 c 0.256 0 0.512 -0.098 0.707 -0.293 l 31.795 -31.795 l 10.574 -0.651 c 0.243 -0.015 0.473 -0.119 0.646 -0.291 l 6.301 -6.301 C 89.991 11.69 90.072 11.245 89.903 10.866 z M 82.25 16.603 l -9.413 0.58 c -0.005 -0.005 -0.006 -0.012 -0.012 -0.018 c -0.005 -0.005 -0.013 -0.007 -0.019 -0.012 l 0.581 -9.412 l 4.166 -4.166 l -0.513 8.315 c -0.018 0.286 0.088 0.566 0.291 0.769 c 0.203 0.203 0.482 0.313 0.769 0.291 l 8.314 -0.513 L 82.25 16.603 z" style="stroke: none; stroke-width: 1; stroke-dasharray: none; stroke-linecap: butt; stroke-linejoin: miter; stroke-miterlimit: 10; fill: rgb(0,0,0); fill-rule: nonzero; opacity: 1;" transform=" matrix(1 0 0 1 0 0) " stroke-linecap="round" />
	<path d="M 39.976 56.584 c -1.755 0 -3.404 -0.684 -4.645 -1.925 c -2.562 -2.562 -2.562 -6.728 0 -9.29 c 0.777 -0.777 1.739 -1.33 2.858 -1.644 c 0.532 -0.15 1.083 0.161 1.233 0.693 c 0.149 0.532 -0.161 1.084 -0.693 1.233 c -0.786 0.22 -1.453 0.601 -1.984 1.132 c -1.781 1.781 -1.781 4.681 0 6.462 c 0.863 0.863 2.011 1.339 3.231 1.339 c 1.221 0 2.368 -0.476 3.231 -1.339 c 0.531 -0.531 0.912 -1.199 1.132 -1.983 c 0.149 -0.533 0.7 -0.845 1.233 -0.693 c 0.531 0.149 0.842 0.701 0.692 1.232 c -0.313 1.12 -0.867 2.081 -1.644 2.858 C 43.381 55.901 41.731 56.584 39.976 56.584 z" style="stroke: none; stroke-width: 1; stroke-dasharray: none; stroke-linecap: butt; stroke-linejoin: miter; stroke-miterlimit: 10; fill: rgb(0,0,0); fill-rule: nonzero; opacity: 1;" transform=" matrix(1 0 0 1 0 0) " stroke-linecap="round" />
	<path d="M 39.976 67.714 c -4.534 0 -9.069 -1.726 -12.521 -5.178 c -3.345 -3.345 -5.187 -7.792 -5.187 -12.521 c 0 -4.73 1.842 -9.177 5.187 -12.521 c 4.54 -4.541 11.206 -6.258 17.403 -4.476 c 0.531 0.152 0.838 0.706 0.685 1.237 c -0.152 0.531 -0.705 0.84 -1.237 0.685 c -5.496 -1.578 -11.412 -0.058 -15.437 3.968 c -2.967 2.967 -4.601 6.912 -4.601 11.107 c 0 4.195 1.634 8.141 4.601 11.107 c 6.124 6.123 16.089 6.123 22.214 0 c 4.026 -4.026 5.547 -9.941 3.969 -15.437 c -0.152 -0.531 0.154 -1.084 0.685 -1.237 c 0.533 -0.152 1.085 0.153 1.237 0.685 c 1.779 6.194 0.063 12.863 -4.477 17.403 C 49.045 65.988 44.511 67.714 39.976 67.714 z" style="stroke: none; stroke-width: 1; stroke-dasharray: none; stroke-linecap: butt; stroke-linejoin: miter; stroke-miterlimit: 10; fill: rgb(0,0,0); fill-rule: nonzero; opacity: 1;" transform=" matrix(1 0 0 1 0 0) " stroke-linecap="round" />
	<path d="M 39.977 78.861 c -7.706 0 -14.95 -3.001 -20.398 -8.449 c -11.247 -11.247 -11.247 -29.548 0 -40.795 c 9.039 -9.04 22.695 -11.06 33.979 -5.025 c 0.487 0.26 0.671 0.866 0.41 1.354 c -0.26 0.487 -0.865 0.67 -1.354 0.41 c -10.501 -5.615 -23.21 -3.736 -31.622 4.676 c -10.467 10.468 -10.467 27.499 0 37.967 c 5.071 5.07 11.812 7.863 18.984 7.863 s 13.913 -2.793 18.983 -7.863 c 8.413 -8.412 10.292 -21.12 4.677 -31.622 c -0.261 -0.487 -0.077 -1.093 0.41 -1.354 c 0.488 -0.261 1.094 -0.077 1.354 0.41 c 6.034 11.286 4.014 24.941 -5.026 33.98 C 54.925 75.86 47.682 78.861 39.977 78.861 z" style="stroke: none; stroke-width: 1; stroke-dasharray: none; stroke-linecap: butt; stroke-linejoin: miter; stroke-miterlimit: 10; fill: rgb(0,0,0); fill-rule: nonzero; opacity: 1;" transform=" matrix(1 0 0 1 0 0) " stroke-linecap="round" />
	<path d="M 39.977 90 c -10.681 0 -20.722 -4.159 -28.274 -11.712 c -15.59 -15.59 -15.59 -40.957 0 -56.548 c 13.286 -13.286 34.343 -15.492 50.07 -5.244 c 0.463 0.302 0.594 0.921 0.292 1.384 c -0.302 0.463 -0.921 0.592 -1.384 0.292 c -14.938 -9.734 -34.943 -7.639 -47.564 4.982 c -14.81 14.811 -14.81 38.909 0 53.719 C 20.291 84.049 29.83 88 39.977 88 c 10.146 0 19.685 -3.951 26.86 -11.126 c 12.622 -12.622 14.717 -32.625 4.982 -47.563 c -0.302 -0.463 -0.171 -1.082 0.292 -1.384 c 0.461 -0.301 1.082 -0.171 1.384 0.292 c 10.248 15.725 8.042 36.783 -5.244 50.069 C 60.699 85.841 50.657 90 39.977 90 z" style="stroke: none; stroke-width: 1; stroke-dasharray: none; stroke-linecap: butt; stroke-linejoin: miter; stroke-miterlimit: 10; fill: rgb(0,0,0); fill-rule: nonzero; opacity: 1;" transform=" matrix(1 0 0 1 0 0) " stroke-linecap="round" />
</g>
</g>
</svg>